<?xml version="1.0" encoding="UTF-8" standalone="no"?>
<!-- Generator: Adobe Illustrator 19.0.0, SVG Export Plug-In . SVG Version: 6.00 Build 0)  -->

<svg
   version="1.1"
   id="Capa_1"
   x="0px"
   y="0px"
   viewBox="0 0 75.835937 72.63049"
   xml:space="preserve"
   sodipodi:docname="info.svg"
   width="75.835938"
   height="72.630493"
   inkscape:version="1.2.2 (732a01da63, 2022-12-09)"
   xmlns:inkscape="http://www.inkscape.org/namespaces/inkscape"
   xmlns:sodipodi="http://sodipodi.sourceforge.net/DTD/sodipodi-0.dtd"
   xmlns="http://www.w3.org/2000/svg"
   xmlns:svg="http://www.w3.org/2000/svg"
   xmlns:rdf="http://www.w3.org/1999/02/22-rdf-syntax-ns#"
   xmlns:cc="http://creativecommons.org/ns#"
   xmlns:dc="http://purl.org/dc/elements/1.1/"><metadata
   id="metadata41"><rdf:RDF><cc:Work
       rdf:about=""><dc:format>image/svg+xml</dc:format><dc:type
         rdf:resource="http://purl.org/dc/dcmitype/StillImage" /><dc:title /></cc:Work></rdf:RDF></metadata><defs
   id="defs39">
	
</defs><sodipodi:namedview
   pagecolor="#ffffff"
   bordercolor="#666666"
   borderopacity="1"
   objecttolerance="10"
   gridtolerance="10"
   guidetolerance="10"
   inkscape:pageopacity="0"
   inkscape:pageshadow="2"
   inkscape:window-width="1920"
   inkscape:window-height="986"
   id="namedview37"
   showgrid="false"
   fit-margin-top="1"
   fit-margin-left="1"
   fit-margin-right="1"
   fit-margin-bottom="1"
   inkscape:zoom="4.2302624"
   inkscape:cx="22.93002"
   inkscape:cy="25.293939"
   inkscape:window-x="-11"
   inkscape:window-y="-11"
   inkscape:window-maximized="1"
   inkscape:current-layer="Capa_1"
   inkscape:showpageshadow="2"
   inkscape:pagecheckerboard="0"
   inkscape:deskcolor="#d1d1d1" />
<path
   inkscape:connector-curvature="0"
   id="path2"
   d="m 46.196232,52.271719 -0.63417,2.592407 c -1.902508,0.750915 -3.422237,1.322441 -4.553898,1.71539 -1.132881,0.394169 -2.44922,0.590237 -3.949016,0.590237 -2.303187,0 -4.094644,-0.564203 -5.372339,-1.684881 -1.277695,-1.125153 -1.916746,-2.550915 -1.916746,-4.280543 0,-0.669559 0.04637,-1.358237 0.14278,-2.059932 0.09722,-0.702508 0.251797,-1.493694 0.463322,-2.378033 l 2.377627,-8.415458 c 0.211525,-0.80583 0.391322,-1.569355 0.535322,-2.291389 0.146034,-0.71756 0.216407,-1.377763 0.216407,-1.972068 0,-1.074712 -0.222509,-1.826441 -0.665492,-2.249085 -0.442983,-0.421423 -1.288271,-0.635389 -2.543186,-0.635389 -0.614644,0 -1.246373,0.09844 -1.890305,0.288813 -0.64678,0.191187 -1.199593,0.375865 -1.663729,0.547526 l 0.635797,-2.594441 c 1.557559,-0.634169 3.046373,-1.17722 4.470508,-1.627932 1.424136,-0.451932 2.769763,-0.678102 4.042576,-0.678102 2.287322,0 4.052339,0.552814 5.291796,1.658441 1.239458,1.10644 1.858983,2.540745 1.858983,4.308203 0,0.365695 -0.04068,1.010034 -0.128135,1.930983 -0.08542,0.922983 -0.244475,1.768678 -0.476339,2.537898 l -2.367458,8.381695 c -0.194034,0.67322 -0.368542,1.442847 -0.520271,2.308881 -0.15661,0.860339 -0.231457,1.517695 -0.231457,1.958644 0,1.112949 0.248135,1.872813 0.745627,2.276745 0.501152,0.403933 1.364339,0.604882 2.590372,0.604882 0.575594,0 1.230509,-0.102102 1.958238,-0.302644 0.725694,-0.200543 1.254915,-0.376678 1.583186,-0.530848 z M 46.796639,17.08284 c 0,1.460339 -0.550373,2.707525 -1.656407,3.733016 -1.103186,1.029153 -2.432542,1.544136 -3.987661,1.544136 -1.56,0 -2.89261,-0.514983 -4.008406,-1.544136 C 36.030402,19.789958 35.4723,18.543179 35.4723,17.08284 c 0,-1.457492 0.558102,-2.706712 1.671865,-3.745221 1.113762,-1.036882 2.448813,-1.555119 4.008406,-1.555119 1.554712,0 2.884475,0.519458 3.987661,1.555119 1.106847,1.038509 1.656407,2.288136 1.656407,3.745221 z"
   style="fill:#ffffff;stroke-width:0.40677965" />
<g
   id="g6"
   transform="translate(-19.99806,-18.47567)">
</g>
<g
   id="g8"
   transform="translate(-19.99806,-18.47567)">
</g>
<g
   id="g10"
   transform="translate(-19.99806,-18.47567)">
</g>
<g
   id="g12"
   transform="translate(-19.99806,-18.47567)">
</g>
<g
   id="g14"
   transform="translate(-19.99806,-18.47567)">
</g>
<g
   id="g16"
   transform="translate(-19.99806,-18.47567)">
</g>
<g
   id="g18"
   transform="translate(-19.99806,-18.47567)">
</g>
<g
   id="g20"
   transform="translate(-19.99806,-18.47567)">
</g>
<g
   id="g22"
   transform="translate(-19.99806,-18.47567)">
</g>
<g
   id="g24"
   transform="translate(-19.99806,-18.47567)">
</g>
<g
   id="g26"
   transform="translate(-19.99806,-18.47567)">
</g>
<g
   id="g28"
   transform="translate(-19.99806,-18.47567)">
</g>
<g
   id="g30"
   transform="translate(-19.99806,-18.47567)">
</g>
<g
   id="g32"
   transform="translate(-19.99806,-18.47567)">
</g>
<g
   id="g34"
   transform="translate(-19.99806,-18.47567)">
</g>
<ellipse
   style="opacity:0.97000002;fill:none;stroke:#ffffff;stroke-width:2.03398085;stroke-miterlimit:4;stroke-dasharray:none;stroke-opacity:1"
   id="path850"
   cx="37.917969"
   cy="36.315247"
   rx="35.900978"
   ry="34.298256" /></svg>
