<?xml version="1.0" encoding="UTF-8" standalone="no"?>
<!-- Uploaded to: SVG Repo, www.svgrepo.com, Generator: SVG Repo Mixer Tools -->

<svg
   width="800px"
   height="800px"
   viewBox="0 0 24 24"
   fill="none"
   version="1.1"
   id="svg6"
   sodipodi:docname="loginw.svg"
   inkscape:version="1.2.2 (732a01da63, 2022-12-09)"
   xmlns:inkscape="http://www.inkscape.org/namespaces/inkscape"
   xmlns:sodipodi="http://sodipodi.sourceforge.net/DTD/sodipodi-0.dtd"
   xmlns="http://www.w3.org/2000/svg"
   xmlns:svg="http://www.w3.org/2000/svg">
  <defs
     id="defs10" />
  <sodipodi:namedview
     id="namedview8"
     pagecolor="#ffffff"
     bordercolor="#000000"
     borderopacity="0.25"
     inkscape:showpageshadow="2"
     inkscape:pageopacity="0.0"
     inkscape:pagecheckerboard="0"
     inkscape:deskcolor="#d1d1d1"
     showgrid="false"
     inkscape:zoom="0.985"
     inkscape:cx="400"
     inkscape:cy="400"
     inkscape:window-width="1920"
     inkscape:window-height="986"
     inkscape:window-x="-11"
     inkscape:window-y="-11"
     inkscape:window-maximized="1"
     inkscape:current-layer="svg6" />
  <path
     d="M2.00098 11.999L16.001 11.999M16.001 11.999L12.501 8.99902M16.001 11.999L12.501 14.999"
     stroke="#1C274C"
     stroke-width="1.5"
     stroke-linecap="round"
     stroke-linejoin="round"
     id="path2"
     style="stroke:#ffffff;stroke-opacity:1" />
  <path
     opacity="0.5"
     d="M9.00195 7C9.01406 4.82497 9.11051 3.64706 9.87889 2.87868C10.7576 2 12.1718 2 15.0002 2L16.0002 2C18.8286 2 20.2429 2 21.1215 2.87868C22.0002 3.75736 22.0002 5.17157 22.0002 8L22.0002 16C22.0002 18.8284 22.0002 20.2426 21.1215 21.1213C20.2429 22 18.8286 22 16.0002 22H15.0002C12.1718 22 10.7576 22 9.87889 21.1213C9.11051 20.3529 9.01406 19.175 9.00195 17"
     stroke="#1C274C"
     stroke-width="1.5"
     stroke-linecap="round"
     id="path4"
     style="stroke:#c8c8c8;stroke-opacity:1" />
</svg>
